<mxfile host="app.diagrams.net" modified="2024-05-15T15:51:49.781Z" agent="Mozilla/5.0 (Windows NT 10.0; Win64; x64) AppleWebKit/537.36 (KHTML, like Gecko) Chrome/124.0.0.0 Safari/537.36 Edg/124.0.0.0" version="24.4.0" etag="4x3Cg2SVRBRAT3tLvlaB" type="github">
  <diagram name="Page-1" id="-U__78U39WyxWEyOoXLW">
    <mxGraphModel>
      <root>
        <mxCell id="0" />
        <mxCell id="1" parent="0" />
      </root>
    </mxGraphModel>
  </diagram>
</mxfile>
